<svg width="627" height="257" viewBox="0 0 627 257" fill="none" xmlns="http://www.w3.org/2000/svg">
<g opacity="0.2">
<path d="M293.617 155.737C297.44 150.581 299.533 144.348 299.596 137.93C299.734 135.718 299.257 133.51 298.218 131.552C297.718 130.907 297.058 130.403 296.303 130.091C295.549 129.779 294.726 129.67 293.916 129.775C287.139 129.775 280.279 134.874 273.568 144.923C266.759 155.3 261.515 166.622 258.004 178.526C264.78 176.755 271.272 174.038 277.289 170.453C283.693 166.733 289.253 161.721 293.617 155.737Z" fill="white"/>
<path d="M623.23 60.7265C621.686 58.8734 619.753 57.3829 617.569 56.3609C615.384 55.339 613.001 54.8106 610.589 54.8133H508.735C505.434 54.8123 502.209 55.8081 499.483 57.6702C496.76 55.8034 493.533 54.8071 490.231 54.8133H462.858C459.788 54.812 456.779 55.6681 454.17 57.2852C451.561 58.9023 449.456 61.216 448.091 63.9655L402.679 155.322L388.577 68.5832C387.95 64.722 385.969 61.2098 382.99 58.6748C380.011 56.1399 376.227 54.7475 372.315 54.7468H347.001C343.123 54.7441 339.369 56.1107 336.4 58.6055C333.431 61.1004 331.438 64.5634 330.773 68.3839L322.468 115.74C321.839 114.925 321.168 114.143 320.458 113.398C317.263 110.098 313.418 107.497 309.167 105.759C304.916 104.021 300.35 103.183 295.759 103.299C281.424 103.299 267.87 110.076 255.495 123.414L253.402 125.722C252.315 120.625 249.903 115.904 246.409 112.036C243.611 108.992 240.193 106.584 236.385 104.973C232.577 103.363 228.467 102.588 224.334 102.701C221.534 102.709 218.745 103.061 216.029 103.747L229.318 63.4008C230.126 60.9269 230.336 58.2968 229.932 55.7259C229.528 53.155 228.52 50.7164 226.992 48.6098C225.464 46.5032 223.459 44.7885 221.14 43.6061C218.822 42.4238 216.257 41.8074 213.654 41.8074C212.718 41.8079 211.785 41.8913 210.864 42.0566L206.179 42.8539C202.076 43.5576 198.39 45.789 195.864 49.0993L195.3 49.199C194.874 49.2247 194.447 49.2247 194.021 49.199C192.742 49.199 191.064 49.199 189.038 49.0163C186.231 48.8668 182.726 48.6841 178.706 48.6841H177.826C175.934 48.6852 174.056 49.0168 172.278 49.6641C170.401 49.3319 168.225 49.0661 165.9 48.8004C164.239 48.601 161.863 48.3187 161.066 48.1526C158.003 47.5454 154.831 47.8192 151.917 48.9423C149.004 50.0654 146.468 51.9917 144.605 54.4977C136.154 49.1979 126.341 46.479 116.368 46.6743C104.846 46.9258 93.5141 49.6624 83.1473 54.697C82.9812 43.7508 85.0907 28.8514 86.4694 18.7856C86.8775 15.8769 86.5014 12.9119 85.38 10.1972C84.2587 7.48241 82.4328 5.11633 80.091 3.34344C77.7491 1.57056 74.9764 0.455178 72.0592 0.112585C69.142 -0.230007 66.1862 0.212617 63.4974 1.3947L62.3512 1.893C59.7864 3.02402 57.5527 4.79067 55.861 7.02581C54.1694 9.26096 53.0759 11.8907 52.6841 14.6663C50.3586 31.0938 47.0366 44.4152 42.8342 54.2817C39.6782 60.793 35.3762 65.2113 31.0077 66.4571C29.6086 66.8191 28.1674 66.9923 26.7223 66.972C24.2316 66.9257 21.751 66.6421 19.3141 66.1249C18.2631 65.9212 17.1955 65.8155 16.125 65.8093C12.127 65.8987 8.29759 67.4377 5.3495 70.1397C2.40142 72.8417 0.535394 76.5228 0.0986814 80.4979C-0.338031 84.473 0.684321 88.4714 2.97547 91.749C5.26661 95.0266 8.67051 97.3602 12.5537 98.3155C19.6629 99.9765 27.0212 105.674 26.2073 111.022C24.5721 121.251 22.083 131.324 18.766 141.137C14.1456 155.072 11.7246 169.643 11.5903 184.323C11.3412 207.81 17.9354 226.945 30.6921 239.669C36.0121 245.048 42.3588 249.303 49.3552 252.182C56.3516 255.062 63.8552 256.505 71.4205 256.429C90.2067 256.429 109.823 247.924 124.49 233.822C124.43 236.017 124.811 238.202 125.611 240.248C126.411 242.293 127.614 244.157 129.147 245.729C130.68 247.301 132.514 248.55 134.539 249.4C136.563 250.251 138.738 250.687 140.934 250.681H156.365C159.679 250.683 162.916 249.685 165.654 247.818C168.392 245.951 170.504 243.302 171.713 240.217L172.162 239.087C173.291 236.164 174.437 233.307 175.484 230.517C176.731 237.1 180.269 243.03 185.472 247.253C190.674 251.477 197.204 253.721 203.904 253.588C214.003 253.588 223.521 249.319 231.576 241.429C235.188 245.523 239.654 248.774 244.66 250.952C249.665 253.131 255.088 254.184 260.545 254.037C270.229 254.037 284.713 250.847 298.748 235.666C299.894 234.42 301.007 233.108 302.07 231.779V231.928C301.653 234.297 301.76 236.728 302.383 239.051C303.006 241.374 304.131 243.532 305.678 245.373C307.225 247.215 309.156 248.695 311.337 249.71C313.517 250.724 315.894 251.249 318.299 251.246H336.819C340.699 251.249 344.456 249.884 347.427 247.389C350.399 244.894 352.395 241.431 353.064 237.609L359.592 200.136L365.405 237.31C366.008 241.194 367.981 244.734 370.966 247.29C373.952 249.846 377.753 251.249 381.683 251.246H398.144C401.191 251.25 404.179 250.407 406.775 248.811C409.37 247.216 411.472 244.93 412.844 242.21L431.365 205.535L426.764 231.945C426.349 234.312 426.458 236.742 427.082 239.062C427.707 241.383 428.832 243.539 430.378 245.379C431.925 247.218 433.856 248.697 436.035 249.71C438.214 250.724 440.589 251.248 442.992 251.246H461.512C464.824 251.248 468.059 250.252 470.797 248.389C473.52 250.245 476.737 251.241 480.033 251.246H584.362C588.225 251.248 591.966 249.892 594.929 247.414C597.893 244.936 599.891 241.495 600.573 237.692L603.779 219.886C604.288 217.483 604.255 214.996 603.681 212.607C603.107 210.219 602.007 207.988 600.462 206.079C598.917 204.169 596.965 202.628 594.748 201.568C592.532 200.509 590.107 199.957 587.651 199.954H521.409L525.595 175.753H585.176C589.04 175.752 592.781 174.395 595.747 171.918C598.713 169.441 600.715 166.001 601.404 162.199L604.61 144.392C605.119 141.989 605.085 139.502 604.511 137.114C603.938 134.725 602.838 132.495 601.293 130.585C599.747 128.675 597.795 127.134 595.579 126.075C593.363 125.015 590.938 124.464 588.481 124.46H534.564L537.753 105.973H607.201C611.063 105.972 614.802 104.614 617.765 102.137C620.728 99.6594 622.727 96.2199 623.412 92.4189L626.734 74.1476C627.163 71.7903 627.072 69.3677 626.466 67.0494C625.861 64.7312 624.756 62.5732 623.23 60.7265ZM46.8539 191.466C47.8672 203.492 52.7838 216.049 64.3944 221.364C67.2818 222.686 70.3693 223.517 73.53 223.823C88.7284 225.484 102.681 216.398 112.581 205.684C117.449 200.31 121.767 194.462 125.47 188.227C127.347 185.137 129.108 181.998 130.802 178.809C131.383 177.713 134.373 170.238 135.204 170.138L140.419 169.54C136.649 184.124 129.59 201.216 120.603 213.308C119.839 214.355 119.025 215.385 118.195 216.381C100.322 237.975 64.9092 250.449 42.3193 227.925C31.2236 216.863 27.9017 200.103 28.0678 184.44C28.201 171.481 30.3414 158.622 34.4128 146.319C38.0279 135.632 40.7285 124.658 42.4854 113.514C44.8773 97.8504 30.4429 85.4426 16.1581 82.2534C22.5255 83.765 29.1584 83.765 35.5257 82.2534C45.741 79.3632 53.2323 70.7757 57.8499 61.0587C62.7001 49.8136 66.4374 35.0637 69.012 16.9253L70.1747 16.427C68.2645 29.7152 66.1384 45.4285 66.7197 57.5706C66.9855 64.0154 68.6465 71.8222 74.8089 73.7656C79.2106 75.1442 83.8117 72.7191 87.9477 70.6262C102.648 63.1848 122.215 58.9991 136.715 69.0815C139.107 70.7425 140.918 72.9517 143.144 74.7788C146.964 77.9015 151.582 77.9846 154.223 73.4001C155.624 70.4572 156.807 67.4148 157.761 64.2977C160.618 64.8791 167.162 65.4106 170.002 65.9587L143.957 138.795H141.283C141.283 138.795 144.29 114.959 144.472 112.766C145.037 106.959 144.358 101.099 142.479 95.5748C139.672 87.5023 133.626 79.5293 125.354 76.5063C117.082 73.4832 107.083 75.6093 99.5582 79.8283C92.313 84.1037 85.8065 89.5221 80.2904 95.8738C69.8109 107.779 61.6985 121.574 56.3882 136.519C49.9268 154.109 45.2926 172.796 46.8539 191.466ZM256.425 220.517C257.48 221.937 258.864 223.078 260.459 223.842C262.054 224.606 263.811 224.97 265.578 224.902C271.242 224.902 277.039 221.713 282.786 215.434C289.957 207.524 295.872 198.561 300.326 188.858L302.17 185.22L308.15 183.559C307.206 188.724 305.61 193.747 303.399 198.509C299.235 207.938 293.632 216.662 286.789 224.371C278.75 233.058 269.963 237.443 260.661 237.443C257.304 237.586 253.961 236.924 250.912 235.511C247.864 234.098 245.198 231.975 243.137 229.321C239.051 224.072 236.975 216.747 236.975 207.561C236.995 204.226 237.239 200.897 237.706 197.595C235.347 203.475 232.922 209.322 230.181 215.019C225.398 224.985 216.295 237.011 204.02 237.011C195.715 237.011 191.297 231.015 191.297 222.826C191.363 220.594 191.778 218.386 192.526 216.282C193.29 213.89 194.187 211.548 195.167 209.289C196.928 204.688 200.549 195.834 205.914 183.061C211.644 169.125 215.747 158.777 218.072 152.315C219.962 147.765 221.117 142.943 221.494 138.031C221.494 132.151 219.252 132.151 218.288 132.151C216.195 132.151 212.176 133.812 204.917 141.701C198.838 148.346 191.629 159.308 183.324 174.341C173.288 193.322 164.445 212.91 156.847 232.991L156.398 234.104H140.968L189.885 83.3663C190.539 81.6184 190.926 79.7816 191.031 77.9181C190.87 76.1276 190.102 74.4457 188.855 73.151C185.503 70.1439 181.094 68.5906 176.597 68.8323L177.743 65.1947H178.54C187.343 65.1947 193.373 66.1581 197.741 65.4438C203.339 64.5303 204.917 64.032 207.01 61.6069L208.671 59.0821L213.355 58.2848L176.198 171.882C184.586 155.355 192.31 142.914 199.253 134.792C208.123 124.427 216.494 119.178 224.168 119.178C226.018 119.087 227.866 119.397 229.586 120.084C231.306 120.772 232.857 121.823 234.135 123.164C236.621 126.119 237.897 129.905 237.706 133.762C237.706 139.609 236.045 146.851 232.939 155.272C229.832 163.693 225.065 174.905 218.72 189.091C214.368 198.94 211.246 206.282 209.385 210.966C209.136 211.581 208.605 213.076 207.724 215.517C207.124 216.894 206.781 218.369 206.711 219.869C206.711 221.53 207.359 223.191 209.186 223.191C213.039 223.324 216.046 219.404 218.288 216.796C221.226 213.164 223.828 209.272 226.062 205.169C232.224 194.688 238.154 183.975 243.968 173.361C244.217 172.929 244.433 172.497 244.665 172.065C244.964 171.301 245.247 170.57 245.562 169.806C250.742 156.887 258.177 144.992 267.521 134.675C276.657 124.825 286.141 119.826 295.759 119.826C298.115 119.721 300.467 120.11 302.664 120.968C304.861 121.826 306.854 123.135 308.515 124.809C311.762 128.381 313.464 133.092 313.249 137.914C313.249 145.323 310.376 152.731 304.695 159.906C298.598 167.398 291.121 173.651 282.67 178.327C274.239 183.223 265.013 186.597 255.412 188.293C253.833 194.48 252.974 200.828 252.854 207.212C252.871 213.009 254.067 217.477 256.425 220.517ZM461.612 234.752H443.092L466.562 100.325H466.146L398.244 234.752H381.783L360.788 100.325H360.389L336.919 234.752H318.398L347.001 71.2906H372.315L394.54 207.943H394.955L462.858 71.2242H490.215L461.612 234.752ZM607.301 89.5785H523.967L515.114 141.07H588.564L585.242 159.342H511.792L501.908 216.497H587.717L584.395 234.769H480.132L508.735 71.3072H610.589L607.301 89.5785Z" fill="white"/>
</g>
</svg>
